<mxfile host="Electron" modified="2024-01-26T08:32:21.036Z" agent="Mozilla/5.0 (Windows NT 10.0; Win64; x64) AppleWebKit/537.36 (KHTML, like Gecko) draw.io/22.0.2 Chrome/114.0.5735.289 Electron/25.8.4 Safari/537.36" etag="RtzX-A0kQQly-sWl3Oe_" version="22.0.2" type="device">
  <diagram name="第 1 页" id="ao1uuemWxlGWUCBMKhTe">
    <mxGraphModel dx="1098" dy="911" grid="1" gridSize="10" guides="1" tooltips="1" connect="1" arrows="1" fold="1" page="1" pageScale="1" pageWidth="827" pageHeight="1169" math="0" shadow="0">
      <root>
        <mxCell id="0" />
        <mxCell id="1" parent="0" />
        <mxCell id="KdOH4MlkDUvUk5zNHe3t-1" value="4" style="whiteSpace=wrap;html=1;aspect=fixed;" vertex="1" parent="1">
          <mxGeometry x="770" y="390" width="80" height="80" as="geometry" />
        </mxCell>
        <mxCell id="KdOH4MlkDUvUk5zNHe3t-2" value="3" style="whiteSpace=wrap;html=1;aspect=fixed;" vertex="1" parent="1">
          <mxGeometry x="690" y="390" width="80" height="80" as="geometry" />
        </mxCell>
        <mxCell id="KdOH4MlkDUvUk5zNHe3t-3" value="3" style="whiteSpace=wrap;html=1;aspect=fixed;" vertex="1" parent="1">
          <mxGeometry x="610" y="390" width="80" height="80" as="geometry" />
        </mxCell>
        <mxCell id="KdOH4MlkDUvUk5zNHe3t-4" value="2" style="whiteSpace=wrap;html=1;aspect=fixed;" vertex="1" parent="1">
          <mxGeometry x="530" y="390" width="80" height="80" as="geometry" />
        </mxCell>
        <mxCell id="KdOH4MlkDUvUk5zNHe3t-5" value="2" style="whiteSpace=wrap;html=1;aspect=fixed;" vertex="1" parent="1">
          <mxGeometry x="450" y="390" width="80" height="80" as="geometry" />
        </mxCell>
        <mxCell id="KdOH4MlkDUvUk5zNHe3t-6" value="1" style="whiteSpace=wrap;html=1;aspect=fixed;" vertex="1" parent="1">
          <mxGeometry x="370" y="390" width="80" height="80" as="geometry" />
        </mxCell>
        <mxCell id="KdOH4MlkDUvUk5zNHe3t-7" value="1" style="whiteSpace=wrap;html=1;aspect=fixed;" vertex="1" parent="1">
          <mxGeometry x="290" y="390" width="80" height="80" as="geometry" />
        </mxCell>
        <mxCell id="KdOH4MlkDUvUk5zNHe3t-8" value="1" style="whiteSpace=wrap;html=1;aspect=fixed;" vertex="1" parent="1">
          <mxGeometry x="210" y="390" width="80" height="80" as="geometry" />
        </mxCell>
        <mxCell id="KdOH4MlkDUvUk5zNHe3t-9" value="0" style="whiteSpace=wrap;html=1;aspect=fixed;" vertex="1" parent="1">
          <mxGeometry x="130" y="390" width="80" height="80" as="geometry" />
        </mxCell>
        <mxCell id="KdOH4MlkDUvUk5zNHe3t-10" value="0" style="whiteSpace=wrap;html=1;aspect=fixed;" vertex="1" parent="1">
          <mxGeometry x="50" y="390" width="80" height="80" as="geometry" />
        </mxCell>
        <mxCell id="KdOH4MlkDUvUk5zNHe3t-11" value="" style="endArrow=classic;html=1;rounded=0;" edge="1" parent="1">
          <mxGeometry width="50" height="50" relative="1" as="geometry">
            <mxPoint x="89.5" y="540" as="sourcePoint" />
            <mxPoint x="89.5" y="470" as="targetPoint" />
          </mxGeometry>
        </mxCell>
        <mxCell id="KdOH4MlkDUvUk5zNHe3t-13" value="" style="endArrow=classic;html=1;rounded=0;" edge="1" parent="1">
          <mxGeometry width="50" height="50" relative="1" as="geometry">
            <mxPoint x="169.5" y="540" as="sourcePoint" />
            <mxPoint x="169.5" y="470" as="targetPoint" />
          </mxGeometry>
        </mxCell>
        <mxCell id="KdOH4MlkDUvUk5zNHe3t-42" value="0" style="whiteSpace=wrap;html=1;aspect=fixed;" vertex="1" parent="1">
          <mxGeometry x="70" y="930" width="80" height="80" as="geometry" />
        </mxCell>
        <mxCell id="KdOH4MlkDUvUk5zNHe3t-43" value="1" style="whiteSpace=wrap;html=1;aspect=fixed;" vertex="1" parent="1">
          <mxGeometry x="150" y="930" width="80" height="80" as="geometry" />
        </mxCell>
        <mxCell id="KdOH4MlkDUvUk5zNHe3t-44" value="2" style="whiteSpace=wrap;html=1;aspect=fixed;" vertex="1" parent="1">
          <mxGeometry x="230" y="930" width="80" height="80" as="geometry" />
        </mxCell>
        <mxCell id="KdOH4MlkDUvUk5zNHe3t-45" value="4" style="whiteSpace=wrap;html=1;aspect=fixed;" vertex="1" parent="1">
          <mxGeometry x="770" y="640" width="80" height="80" as="geometry" />
        </mxCell>
        <mxCell id="KdOH4MlkDUvUk5zNHe3t-46" value="3" style="whiteSpace=wrap;html=1;aspect=fixed;" vertex="1" parent="1">
          <mxGeometry x="690" y="640" width="80" height="80" as="geometry" />
        </mxCell>
        <mxCell id="KdOH4MlkDUvUk5zNHe3t-47" value="3" style="whiteSpace=wrap;html=1;aspect=fixed;" vertex="1" parent="1">
          <mxGeometry x="610" y="640" width="80" height="80" as="geometry" />
        </mxCell>
        <mxCell id="KdOH4MlkDUvUk5zNHe3t-48" value="2" style="whiteSpace=wrap;html=1;aspect=fixed;" vertex="1" parent="1">
          <mxGeometry x="530" y="640" width="80" height="80" as="geometry" />
        </mxCell>
        <mxCell id="KdOH4MlkDUvUk5zNHe3t-49" value="2" style="whiteSpace=wrap;html=1;aspect=fixed;" vertex="1" parent="1">
          <mxGeometry x="450" y="640" width="80" height="80" as="geometry" />
        </mxCell>
        <mxCell id="KdOH4MlkDUvUk5zNHe3t-50" value="4" style="whiteSpace=wrap;html=1;aspect=fixed;" vertex="1" parent="1">
          <mxGeometry x="370" y="640" width="80" height="80" as="geometry" />
        </mxCell>
        <mxCell id="KdOH4MlkDUvUk5zNHe3t-51" value="3" style="whiteSpace=wrap;html=1;aspect=fixed;" vertex="1" parent="1">
          <mxGeometry x="290" y="640" width="80" height="80" as="geometry" />
        </mxCell>
        <mxCell id="KdOH4MlkDUvUk5zNHe3t-52" value="2" style="whiteSpace=wrap;html=1;aspect=fixed;" vertex="1" parent="1">
          <mxGeometry x="210" y="640" width="80" height="80" as="geometry" />
        </mxCell>
        <mxCell id="KdOH4MlkDUvUk5zNHe3t-53" value="1" style="whiteSpace=wrap;html=1;aspect=fixed;" vertex="1" parent="1">
          <mxGeometry x="130" y="640" width="80" height="80" as="geometry" />
        </mxCell>
        <mxCell id="KdOH4MlkDUvUk5zNHe3t-54" value="0" style="whiteSpace=wrap;html=1;aspect=fixed;" vertex="1" parent="1">
          <mxGeometry x="50" y="640" width="80" height="80" as="geometry" />
        </mxCell>
        <mxCell id="KdOH4MlkDUvUk5zNHe3t-55" value="" style="endArrow=classic;html=1;rounded=0;" edge="1" parent="1">
          <mxGeometry width="50" height="50" relative="1" as="geometry">
            <mxPoint x="413" y="790" as="sourcePoint" />
            <mxPoint x="413" y="720" as="targetPoint" />
          </mxGeometry>
        </mxCell>
        <mxCell id="KdOH4MlkDUvUk5zNHe3t-56" value="" style="endArrow=classic;html=1;rounded=0;" edge="1" parent="1">
          <mxGeometry width="50" height="50" relative="1" as="geometry">
            <mxPoint x="800" y="800" as="sourcePoint" />
            <mxPoint x="800" y="730" as="targetPoint" />
          </mxGeometry>
        </mxCell>
      </root>
    </mxGraphModel>
  </diagram>
</mxfile>
